master.ufo
<glyph name="D" format="1">
	<unicode hex="0044"/>
	<advance width="600"/>
	<outline>
		<contour>
			<point x="30" y="0" type="line"/>
			<point x="186" y="0" type="line" smooth="yes"/>
			<point x="428" y="0"/>
			<point x="550" y="180"/>
			<point x="550" y="404" type="curve" smooth="yes"/>
			<point x="550" y="559"/>
			<point x="462" y="660"/>
			<point x="280" y="660" type="curve" smooth="yes"/>
			<point x="162" y="660" type="line"/>
		</contour>
		<contour>
			<point x="64" y="26" type="line"/>
			<point x="186" y="634" type="line"/>
			<point x="278" y="634" type="line" smooth="yes"/>
			<point x="442" y="634"/>
			<point x="520" y="541"/>
			<point x="520" y="402" type="curve" smooth="yes"/>
			<point x="520" y="191"/>
			<point x="404" y="26"/>
			<point x="188" y="26" type="curve" smooth="yes"/>
		</contour>
		<contour>
			<point name="aboveUC" x="360" y="680" type="move"/>
		</contour>
		<contour>
			<point name="baseLC" x="220" y="0" type="move"/>
		</contour>
		<contour>
			<point name="belowLC" x="230" y="-20" type="move"/>
		</contour>
	</outline>
</glyph>
<glyph name="I" format="1">
	<unicode hex="0049"/>
	<advance width="600"/>
	<outline>
		<contour>
			<point x="50" y="0" type="line"/>
			<point x="424" y="0" type="line"/>
			<point x="430" y="26" type="line"/>
			<point x="256" y="26" type="line"/>
			<point x="378" y="634" type="line"/>
			<point x="552" y="634" type="line"/>
			<point x="558" y="660" type="line"/>
			<point x="182" y="660" type="line"/>
			<point x="176" y="634" type="line"/>
			<point x="348" y="634" type="line"/>
			<point x="226" y="26" type="line"/>
			<point x="56" y="26" type="line"/>
		</contour>
		<contour>
			<point name="aboveUC" x="374" y="680" type="move"/>
		</contour>
		<contour>
			<point name="baseLC" x="238" y="0" type="move"/>
		</contour>
		<contour>
			<point name="belowLC" x="234" y="-20" type="move"/>
		</contour>
		<contour>
			<point name="ogonekUC" x="238" y="0" type="move"/>
		</contour>
	</outline>
</glyph>
<glyph name="R" format="1">
	<unicode hex="0052"/>
	<advance width="600"/>
	<outline>
		<contour>
			<point x="50" y="0" type="line"/>
			<point x="80" y="0" type="line"/>
			<point x="142" y="310" type="line"/>
			<point x="284" y="310" type="line" smooth="yes"/>
			<point x="426" y="310"/>
			<point x="532" y="390"/>
			<point x="532" y="518" type="curve" smooth="yes"/>
			<point x="532" y="618"/>
			<point x="460" y="660"/>
			<point x="342" y="660" type="curve" smooth="yes"/>
			<point x="182" y="660" type="line"/>
		</contour>
		<contour>
			<point x="148" y="336" type="line"/>
			<point x="206" y="634" type="line"/>
			<point x="324" y="634" type="line" smooth="yes"/>
			<point x="442" y="634"/>
			<point x="502" y="602"/>
			<point x="502" y="516" type="curve" smooth="yes"/>
			<point x="502" y="404"/>
			<point x="418" y="336"/>
			<point x="270" y="336" type="curve" smooth="yes"/>
		</contour>
		<contour>
			<point x="282" y="312" type="line"/>
			<point x="410" y="0" type="line"/>
			<point x="444" y="0" type="line"/>
			<point x="310" y="324" type="line"/>
		</contour>
		<contour>
			<point name="aboveUC" x="370" y="680" type="move"/>
		</contour>
		<contour>
			<point name="baseLC" x="66" y="0" type="move"/>
		</contour>
		<contour>
			<point name="belowLC" x="260" y="-20" type="move"/>
		</contour>
	</outline>
</glyph>
<glyph name="j" format="1">
	<unicode hex="006A"/>
	<advance width="600"/>
	<outline>
		<component base="dotlessj"/>
		<component base="dotaccentcmb" xOffset="52"/>
		<contour>
			<point name="aboveUC" x="430" y="720" type="move"/>
		</contour>
		<contour>
			<point name="belowLC" x="130" y="-230" type="move"/>
		</contour>
	</outline>
</glyph>
<glyph name="m" format="1">
	<unicode hex="006D"/>
	<advance width="600"/>
	<outline>
		<contour>
			<point x="16" y="0" type="line"/>
			<point x="44" y="0" type="line"/>
			<point x="116" y="362" type="line"/>
			<point x="166" y="430"/>
			<point x="207" y="464"/>
			<point x="256" y="464" type="curve" smooth="yes"/>
			<point x="290" y="464"/>
			<point x="308" y="446"/>
			<point x="308" y="402" type="curve" smooth="yes"/>
			<point x="308" y="388"/>
			<point x="306" y="372"/>
			<point x="302" y="352" type="curve" smooth="yes"/>
			<point x="232" y="0" type="line"/>
			<point x="260" y="0" type="line"/>
			<point x="332" y="362" type="line"/>
			<point x="380" y="430"/>
			<point x="424" y="464"/>
			<point x="473" y="464" type="curve" smooth="yes"/>
			<point x="506" y="464"/>
			<point x="524" y="446"/>
			<point x="524" y="402" type="curve" smooth="yes"/>
			<point x="524" y="388"/>
			<point x="522" y="372"/>
			<point x="518" y="352" type="curve" smooth="yes"/>
			<point x="448" y="0" type="line"/>
			<point x="476" y="0" type="line"/>
			<point x="545" y="350" type="line" smooth="yes"/>
			<point x="550" y="376"/>
			<point x="552" y="392"/>
			<point x="552" y="408" type="curve" smooth="yes"/>
			<point x="552" y="466"/>
			<point x="524" y="490"/>
			<point x="478" y="490" type="curve" smooth="yes"/>
			<point x="436" y="490"/>
			<point x="384" y="466"/>
			<point x="324" y="390" type="curve"/>
			<point x="336" y="404" type="line"/>
			<point x="336" y="466"/>
			<point x="308" y="490"/>
			<point x="262" y="490" type="curve" smooth="yes"/>
			<point x="218" y="490"/>
			<point x="174" y="466"/>
			<point x="128" y="410" type="curve"/>
			<point x="126" y="410" type="line"/>
			<point x="136" y="478" type="line"/>
			<point x="112" y="478" type="line"/>
		</contour>
		<contour>
			<point name="aboveLC" x="350" y="498" type="move"/>
		</contour>
		<contour>
			<point name="baseLC" x="458" y="0" type="move"/>
		</contour>
		<contour>
			<point name="belowLC" x="240" y="-20" type="move"/>
		</contour>
	</outline>
</glyph>
<glyph name="divide" format="1">
	<unicode hex="00F7"/>
	<advance width="600"/>
	<outline>
		<contour>
			<point x="300" y="475" type="curve" smooth="yes"/>
			<point x="317" y="475"/>
			<point x="331" y="488"/>
			<point x="331" y="510" type="curve" smooth="yes"/>
			<point x="331" y="530"/>
			<point x="317" y="543"/>
			<point x="300" y="543" type="curve" smooth="yes"/>
			<point x="283" y="543"/>
			<point x="269" y="530"/>
			<point x="269" y="510" type="curve" smooth="yes"/>
			<point x="269" y="488"/>
			<point x="283" y="475"/>
		</contour>
		<contour>
			<point x="300" y="115" type="curve" smooth="yes"/>
			<point x="317" y="115"/>
			<point x="331" y="128"/>
			<point x="331" y="150" type="curve" smooth="yes"/>
			<point x="331" y="170"/>
			<point x="317" y="183"/>
			<point x="300" y="183" type="curve" smooth="yes"/>
			<point x="283" y="183"/>
			<point x="269" y="170"/>
			<point x="269" y="150" type="curve" smooth="yes"/>
			<point x="269" y="128"/>
			<point x="283" y="115"/>
		</contour>
		<contour>
			<point x="99" y="317" type="line"/>
			<point x="501" y="317" type="line"/>
			<point x="501" y="343" type="line"/>
			<point x="99" y="343" type="line"/>
		</contour>
	</outline>
</glyph>
<glyph name="Schwa" format="1">
	<unicode hex="018F"/>
	<advance width="600"/>
	<outline>
		<contour>
			<point x="236" y="-12" type="curve" smooth="yes"/>
			<point x="421" y="-12"/>
			<point x="562" y="177"/>
			<point x="562" y="430" type="curve" smooth="yes"/>
			<point x="562" y="582"/>
			<point x="502" y="672"/>
			<point x="377" y="672" type="curve" smooth="yes"/>
			<point x="300" y="672"/>
			<point x="223" y="635"/>
			<point x="176" y="593" type="curve"/>
			<point x="192" y="573" type="line"/>
			<point x="239" y="615"/>
			<point x="308" y="647"/>
			<point x="374" y="647" type="curve" smooth="yes"/>
			<point x="482" y="647"/>
			<point x="532" y="559"/>
			<point x="532" y="427" type="curve" smooth="yes"/>
			<point x="532" y="197"/>
			<point x="405" y="14"/>
			<point x="235" y="14" type="curve" smooth="yes"/>
			<point x="113" y="14"/>
			<point x="78" y="134"/>
			<point x="99" y="301" type="curve"/>
			<point x="99" y="301"/>
			<point x="526" y="301"/>
			<point x="526" y="301" type="curve"/>
			<point x="531" y="327" type="line"/>
			<point x="531" y="327"/>
			<point x="74" y="327"/>
			<point x="74" y="327" type="curve"/>
			<point x="67" y="285"/>
			<point x="64" y="248"/>
			<point x="64" y="215" type="curve" smooth="yes"/>
			<point x="64" y="54"/>
			<point x="130" y="-12"/>
		</contour>
		<contour>
			<point name="aboveUC" x="376" y="680" type="move"/>
		</contour>
		<contour>
			<point name="baseLC" x="250" y="0" type="move"/>
		</contour>
		<contour>
			<point name="belowLC" x="244" y="-20" type="move"/>
		</contour>
		<contour>
			<point name="ogonekUC" x="250" y="0" type="move"/>
		</contour>
	</outline>
</glyph>
<glyph name="ohorn" format="1">
	<unicode hex="01A1"/>
	<advance width="600"/>
	<outline>
		<contour>
			<point x="437" y="442" type="line"/>
			<point x="490" y="452"/>
			<point x="566" y="485"/>
			<point x="566" y="568" type="curve" smooth="yes"/>
			<point x="566" y="584"/>
			<point x="564" y="602"/>
			<point x="558" y="620" type="curve"/>
			<point x="530" y="606" type="line"/>
			<point x="535" y="591"/>
			<point x="536" y="578"/>
			<point x="536" y="566" type="curve" smooth="yes"/>
			<point x="536" y="504"/>
			<point x="485" y="469"/>
			<point x="410" y="464" type="curve"/>
		</contour>
		<component base="o"/>
		<contour>
			<point name="aboveLC" x="338" y="500" type="move"/>
		</contour>
		<contour>
			<point name="belowLC" x="234" y="-20" type="move"/>
		</contour>
	</outline>
</glyph>
<glyph name="Uhorn" format="1">
	<unicode hex="01AF"/>
	<advance width="600"/>
	<outline>
		<contour>
			<point x="572" y="636" type="line"/>
			<point x="636" y="646"/>
			<point x="696" y="686"/>
			<point x="696" y="764" type="curve" smooth="yes"/>
			<point x="696" y="781"/>
			<point x="693" y="797"/>
			<point x="686" y="818" type="curve"/>
			<point x="656" y="805" type="line"/>
			<point x="663" y="787"/>
			<point x="664" y="772"/>
			<point x="664" y="758" type="curve" smooth="yes"/>
			<point x="664" y="700"/>
			<point x="622" y="662"/>
			<point x="550" y="660" type="curve"/>
		</contour>
		<component base="U"/>
		<contour>
			<point name="aboveUC" x="374" y="680" type="move"/>
		</contour>
		<contour>
			<point name="belowLC" x="234" y="-20" type="move"/>
		</contour>
	</outline>
</glyph>
<glyph name="Aringacute" format="1">
	<unicode hex="01FA"/>
	<advance width="600"/>
	<outline>
		<contour>
			<point x="374" y="838" type="line"/>
			<point x="508" y="908" type="line"/>
			<point x="494" y="932" type="line"/>
			<point x="360" y="854" type="line"/>
		</contour>
		<component base="Aring"/>
		<contour>
			<point name="ogonekUC" x="458" y="0" type="move"/>
		</contour>
	</outline>
</glyph>
<glyph name="vturned" format="1">
	<unicode hex="028C"/>
	<advance width="600"/>
	<outline>
		<component base="v" xScale="-1" yScale="-1" xOffset="580" yOffset="478"/>
		<contour>
			<point name="aboveLC" x="340" y="520" type="move"/>
		</contour>
		<contour>
			<point name="belowLC" x="240" y="-20" type="move"/>
		</contour>
	</outline>
</glyph>
<glyph name="yturned" format="1">
	<unicode hex="028E"/>
	<advance width="600"/>
	<outline>
		<contour>
			<point x="14" y="0" type="line"/>
			<point x="46" y="0" type="line"/>
			<point x="246" y="318" type="line" smooth="yes"/>
			<point x="270" y="356"/>
			<point x="306" y="414"/>
			<point x="332" y="458" type="curve"/>
			<point x="336" y="458" type="line"/>
			<point x="346" y="414"/>
			<point x="360" y="356"/>
			<point x="370" y="318" type="curve" smooth="yes"/>
			<point x="452" y="0" type="line"/>
			<point x="480" y="0" type="line"/>
			<point x="352" y="484" type="line"/>
			<point x="414" y="580" type="line" smooth="yes"/>
			<point x="476" y="676"/>
			<point x="504" y="708"/>
			<point x="566" y="708" type="curve" smooth="yes"/>
			<point x="588" y="708"/>
			<point x="604" y="704"/>
			<point x="620" y="696" type="curve"/>
			<point x="632" y="720" type="line"/>
			<point x="612" y="730"/>
			<point x="594" y="734"/>
			<point x="568" y="734" type="curve" smooth="yes"/>
			<point x="486" y="734"/>
			<point x="454" y="688"/>
			<point x="394" y="594" type="curve" smooth="yes"/>
		</contour>
		<contour>
			<point name="aboveUC" x="450" y="740" type="move"/>
		</contour>
		<contour>
			<point name="belowLC" x="240" y="-20" type="move"/>
		</contour>
	</outline>
</glyph>
<glyph name="circumflexcmb" format="1">
	<unicode hex="0302"/>
	<advance width="600"/>
	<outline>
		<contour>
			<point x="242" y="574" type="line"/>
			<point x="378" y="706" type="line"/>
			<point x="382" y="706" type="line"/>
			<point x="468" y="574" type="line"/>
			<point x="488" y="588" type="line"/>
			<point x="396" y="736" type="line"/>
			<point x="368" y="736" type="line"/>
			<point x="224" y="590" type="line"/>
		</contour>
		<contour>
			<point name="_aboveLC" x="338" y="500" type="move"/>
		</contour>
		<contour>
			<point name="aboveLC" x="384" y="728" type="move"/>
		</contour>
	</outline>
</glyph>
<glyph name="caroncmb" format="1">
	<unicode hex="030C"/>
	<advance width="600"/>
	<outline>
		<contour>
			<point x="338" y="572" type="line"/>
			<point x="366" y="572" type="line"/>
			<point x="510" y="718" type="line"/>
			<point x="492" y="734" type="line"/>
			<point x="356" y="602" type="line"/>
			<point x="352" y="602" type="line"/>
			<point x="266" y="734" type="line"/>
			<point x="246" y="720" type="line"/>
		</contour>
		<contour>
			<point name="_aboveLC" x="338" y="500" type="move"/>
		</contour>
	</outline>
</glyph>
<glyph name="bridgebelowcmb" format="1">
	<unicode hex="032A"/>
	<advance width="600"/>
	<outline>
		<contour>
			<point x="77" y="-230" type="line"/>
			<point x="103" y="-230" type="line"/>
			<point x="126" y="-114" type="line"/>
			<point x="306" y="-114" type="line"/>
			<point x="283" y="-230" type="line"/>
			<point x="309" y="-230" type="line"/>
			<point x="337" y="-86" type="line"/>
			<point x="105" y="-86" type="line"/>
		</contour>
		<contour>
			<point name="_belowLC" x="234" y="-20" type="move"/>
		</contour>
	</outline>
</glyph>
<glyph name="brevebelowcmb" format="1">
	<unicode hex="032E"/>
	<advance width="600"/>
	<outline>
		<component base="brevecmb" xOffset="-156" yOffset="-790"/>
		<contour>
			<point name="_belowLC" x="234" y="-20" type="move"/>
		</contour>
	</outline>
</glyph>
<glyph name="tildebelowcmb" format="1">
	<unicode hex="0330"/>
	<advance width="600"/>
	<outline>
		<component base="tildecmb" xOffset="-154" yOffset="-800"/>
		<contour>
			<point name="_belowLC" x="234" y="-20" type="move"/>
		</contour>
	</outline>
</glyph>
<glyph name="macrondoublebelowcmb" format="1">
	<unicode hex="035F"/>
	<advance width="600"/>
	<outline>
		<contour>
			<point x="-268" y="-154" type="line"/>
			<point x="684" y="-154" type="line"/>
			<point x="689" y="-128" type="line"/>
			<point x="-263" y="-128" type="line"/>
		</contour>
	</outline>
</glyph>
<glyph name="underscoredbl" format="1">
	<unicode hex="2017"/>
	<advance width="600"/>
	<outline>
		<contour>
			<point x="-25" y="-119" type="line"/>
			<point x="455" y="-119" type="line"/>
			<point x="462" y="-83" type="line"/>
			<point x="-18" y="-83" type="line"/>
		</contour>
		<contour>
			<point x="-45" y="-217" type="line"/>
			<point x="435" y="-217" type="line"/>
			<point x="442" y="-181" type="line"/>
			<point x="-38" y="-181" type="line"/>
		</contour>
	</outline>
</glyph>
<glyph name="arrowleft" format="1">
	<unicode hex="2190"/>
	<advance width="600"/>
	<outline>
		<contour>
			<point x="288" y="-14" type="line"/>
			<point x="307" y="5" type="line"/>
			<point x="63" y="239" type="line"/>
			<point x="570" y="239" type="line"/>
			<point x="570" y="265" type="line"/>
			<point x="63" y="265" type="line"/>
			<point x="307" y="499" type="line"/>
			<point x="288" y="518" type="line"/>
			<point x="20" y="254" type="line"/>
			<point x="20" y="250" type="line"/>
		</contour>
	</outline>
</glyph>
<glyph name="trianglesmalldownwhite" format="1">
	<unicode hex="25BF"/>
	<advance width="600"/>
	<outline>
		<contour>
			<point x="299" y="103" type="line"/>
			<point x="301" y="103" type="line"/>
			<point x="461" y="387" type="line"/>
			<point x="461" y="389" type="line"/>
			<point x="139" y="389" type="line"/>
			<point x="139" y="387" type="line"/>
		</contour>
		<contour>
			<point x="300" y="145" type="line"/>
			<point x="175" y="368" type="line"/>
			<point x="425" y="368" type="line"/>
		</contour>
	</outline>
</glyph>
<glyph name="uniE0A1" format="1">
	<unicode hex="E0A1"/>
	<advance width="600"/>
	<outline>
		<contour>
			<point x="99" y="440" type="line"/>
			<point x="365" y="440" type="line"/>
			<point x="365" y="467" type="line"/>
			<point x="127" y="467" type="line"/>
			<point x="127" y="920" type="line"/>
			<point x="99" y="920" type="line"/>
		</contour>
		<contour>
			<point x="225" y="-166" type="line"/>
			<point x="253" y="-166" type="line"/>
			<point x="253" y="67" type="line"/>
			<point x="250" y="253" type="line"/>
			<point x="254" y="253" type="line"/>
			<point x="471" y="-166" type="line"/>
			<point x="501" y="-166" type="line"/>
			<point x="501" y="312" type="line"/>
			<point x="473" y="312" type="line"/>
			<point x="473" y="97" type="line"/>
			<point x="477" y="-113" type="line"/>
			<point x="473" y="-113" type="line"/>
			<point x="255" y="312" type="line"/>
			<point x="225" y="312" type="line"/>
		</contour>
	</outline>
</glyph>
<glyph name="acutecmb.cap" format="1">
	<advance width="600"/>
	<outline>
		<contour>
			<point x="372" y="716" type="line"/>
			<point x="518" y="816" type="line"/>
			<point x="500" y="842" type="line"/>
			<point x="360" y="732" type="line"/>
		</contour>
		<contour>
			<point name="_aboveUC" x="374" y="680" type="move"/>
		</contour>
	</outline>
</glyph>
<glyph name="brevetildecmb.cap" format="1">
	<advance width="600"/>
	<outline>
		<contour>
			<point x="380" y="712" type="curve" smooth="yes"/>
			<point x="467" y="712"/>
			<point x="517" y="768"/>
			<point x="532" y="814" type="curve"/>
			<point x="506" y="818" type="line"/>
			<point x="492" y="776"/>
			<point x="452" y="738"/>
			<point x="385" y="738" type="curve" smooth="yes"/>
			<point x="318" y="738"/>
			<point x="292" y="776"/>
			<point x="294" y="818" type="curve"/>
			<point x="268" y="814" type="line"/>
			<point x="265" y="768"/>
			<point x="293" y="712"/>
		</contour>
		<contour>
			<point x="475" y="840" type="curve" smooth="yes"/>
			<point x="529" y="840"/>
			<point x="549" y="884"/>
			<point x="557" y="916" type="curve"/>
			<point x="534" y="918" type="line"/>
			<point x="524" y="887"/>
			<point x="510" y="866"/>
			<point x="482" y="866" type="curve" smooth="yes"/>
			<point x="430" y="866"/>
			<point x="420" y="920"/>
			<point x="350" y="920" type="curve" smooth="yes"/>
			<point x="296" y="920"/>
			<point x="276" y="876"/>
			<point x="267" y="844" type="curve"/>
			<point x="291" y="842" type="line"/>
			<point x="301" y="873"/>
			<point x="315" y="894"/>
			<point x="343" y="894" type="curve" smooth="yes"/>
			<point x="395" y="894"/>
			<point x="405" y="840"/>
		</contour>
		<contour>
			<point name="_aboveUC" x="374" y="680" type="move"/>
		</contour>
	</outline>
</glyph>
<glyph name="commabelowcmb.a" format="1">
	<advance width="600"/>
	<outline>
		<contour>
			<point x="370" y="538" type="curve"/>
			<point x="385" y="563" type="line"/>
			<point x="360" y="568"/>
			<point x="334" y="580"/>
			<point x="334" y="606" type="curve" smooth="yes"/>
			<point x="334" y="639"/>
			<point x="384" y="659"/>
			<point x="441" y="665" type="curve"/>
			<point x="440" y="690" type="line"/>
			<point x="364" y="682"/>
			<point x="304" y="655"/>
			<point x="304" y="603" type="curve" smooth="yes"/>
			<point x="304" y="567"/>
			<point x="332" y="548"/>
		</contour>
		<contour>
			<point name="_aboveLC" x="338" y="500" type="move"/>
		</contour>
	</outline>
</glyph>
<glyph name="emdash.sups" format="1">
	<advance width="600"/>
	<outline>
		<contour>
			<point x="108" y="558" type="line"/>
			<point x="590" y="558" type="line"/>
			<point x="596" y="580" type="line"/>
			<point x="114" y="580" type="line"/>
		</contour>
	</outline>
</glyph>
<glyph name="endash.sups" format="1">
	<advance width="600"/>
	<outline>
		<contour>
			<point x="216" y="558" type="line"/>
			<point x="484" y="558" type="line"/>
			<point x="490" y="580" type="line"/>
			<point x="222" y="580" type="line"/>
		</contour>
	</outline>
</glyph>
<glyph name="parenleft.subs" format="1">
	<advance width="600"/>
	<outline>
		<contour>
			<point x="248" y="-242" type="curve"/>
			<point x="266" y="-230" type="line"/>
			<point x="242" y="-182"/>
			<point x="234" y="-112"/>
			<point x="234" y="-58" type="curve" smooth="yes"/>
			<point x="234" y="56"/>
			<point x="274" y="164"/>
			<point x="368" y="272" type="curve"/>
			<point x="352" y="286" type="line"/>
			<point x="252" y="174"/>
			<point x="208" y="72"/>
			<point x="208" y="-56" type="curve" smooth="yes"/>
			<point x="208" y="-124"/>
			<point x="222" y="-190"/>
		</contour>
	</outline>
</glyph>
<glyph name="q.sups" format="1">
	<advance width="600"/>
	<outline>
		<contour>
			<point x="379" y="266" type="line"/>
			<point x="409" y="266" type="line"/>
			<point x="501" y="726" type="line"/>
			<point x="476" y="726" type="line"/>
			<point x="467" y="695" type="line"/>
			<point x="465" y="695" type="line"/>
			<point x="437" y="718"/>
			<point x="412" y="734"/>
			<point x="371" y="734" type="curve" smooth="yes"/>
			<point x="275" y="734"/>
			<point x="183" y="653"/>
			<point x="183" y="526" type="curve" smooth="yes"/>
			<point x="183" y="447"/>
			<point x="225" y="402"/>
			<point x="294" y="402" type="curve" smooth="yes"/>
			<point x="340" y="402"/>
			<point x="382" y="424"/>
			<point x="418" y="450" type="curve"/>
			<point x="403" y="389" type="line"/>
		</contour>
		<contour>
			<point x="304" y="429" type="curve" smooth="yes"/>
			<point x="245" y="429"/>
			<point x="215" y="470"/>
			<point x="215" y="533" type="curve" smooth="yes"/>
			<point x="215" y="633"/>
			<point x="288" y="707"/>
			<point x="367" y="707" type="curve" smooth="yes"/>
			<point x="400" y="707"/>
			<point x="428" y="698"/>
			<point x="459" y="668" type="curve"/>
			<point x="422" y="480" type="line"/>
			<point x="380" y="447"/>
			<point x="341" y="429"/>
		</contour>
	</outline>
</glyph>
<glyph name="zero.0c" format="1">
	<advance width="600"/>
	<outline>
		<contour>
			<point x="252" y="-14" type="curve" smooth="yes"/>
			<point x="435" y="-14"/>
			<point x="532" y="236"/>
			<point x="532" y="418" type="curve" smooth="yes"/>
			<point x="532" y="562"/>
			<point x="472" y="672"/>
			<point x="354" y="672" type="curve" smooth="yes"/>
			<point x="171" y="672"/>
			<point x="74" y="422"/>
			<point x="74" y="240" type="curve" smooth="yes"/>
			<point x="74" y="96"/>
			<point x="134" y="-14"/>
		</contour>
		<contour>
			<point x="254" y="12" type="curve" smooth="yes"/>
			<point x="150" y="12"/>
			<point x="104" y="112"/>
			<point x="104" y="244" type="curve" smooth="yes"/>
			<point x="104" y="402"/>
			<point x="192" y="646"/>
			<point x="352" y="646" type="curve" smooth="yes"/>
			<point x="456" y="646"/>
			<point x="502" y="546"/>
			<point x="502" y="414" type="curve" smooth="yes"/>
			<point x="502" y="256"/>
			<point x="414" y="12"/>
		</contour>
		<contour>
			<point x="414" y="92" type="line"/>
			<point x="435" y="114" type="line"/>
			<point x="194" y="560" type="line"/>
			<point x="169" y="546" type="line"/>
		</contour>
	</outline>
</glyph>
